HIERARCHY
ROOT root
{
	OFFSET	0	13.1	24.9
	CHANNELS 6  Xposition Yposition Zposition Xrotation Yrotation Zrotation
	JOINT spine_1
	{
		OFFSET	0	9.99999	0
		CHANNELS 3  Xrotation Yrotation Zrotation
		JOINT spine_2
		{
			OFFSET	0	112	-10
			CHANNELS 3  Xrotation Yrotation Zrotation
			JOINT spine_3
			{
				OFFSET	0	206.5	19.3
				CHANNELS 3  Xrotation Yrotation Zrotation
				JOINT spine_4
				{
					OFFSET	0	110.4	14.6
					CHANNELS 3  Xrotation Yrotation Zrotation
					JOINT neck_1
					{
						OFFSET	0	71.8	-50.3
						CHANNELS 3  Xrotation Yrotation Zrotation
						JOINT neck_2
						{
							OFFSET	0	86.2	-25.8
							CHANNELS 3  Xrotation Yrotation Zrotation
							JOINT head_ee
							{
								OFFSET	0	179.8	-8.7
								CHANNELS 3  Xrotation Yrotation Zrotation
								End Site
								{
									OFFSET	1	0	0
								}
							}
						}
					}
					JOINT left_clavicle
					{
						OFFSET	-43.2	22.4	-70.8
						CHANNELS 3  Xrotation Yrotation Zrotation
						JOINT left_shoulder
						{
							OFFSET	-93.9	-5.79999	48.7
							CHANNELS 3  Xrotation Yrotation Zrotation
							JOINT left_elbow
							{
								OFFSET	-291.4	-30.8	15.2
								CHANNELS 3  Xrotation Yrotation Zrotation
								JOINT left_lowarm_twist
								{
									OFFSET	-110.7	-3.89999	13.6
									CHANNELS 3  Xrotation Yrotation Zrotation
									JOINT left_hand
									{
										OFFSET	-110.7	-3.89999	13.6
										CHANNELS 3  Xrotation Yrotation Zrotation
										JOINT left_ee
										{
											OFFSET	-80.8	-5.10001	12.1
											CHANNELS 3  Xrotation Yrotation Zrotation
											End Site
											{
												OFFSET	1	0	0
											}
										}
									}
								}
							}
						}
					}
					JOINT right_clavicle
					{
						OFFSET	43.2	22.4	-70.8
						CHANNELS 3  Xrotation Yrotation Zrotation
						JOINT right_shoulder
						{
							OFFSET	93.9	-5.79999	48.7
							CHANNELS 3  Xrotation Yrotation Zrotation
							JOINT right_elbow
							{
								OFFSET	291.4	-30.8	15.2
								CHANNELS 3  Xrotation Yrotation Zrotation
								JOINT right_lowarm_twist
								{
									OFFSET	110.7	-3.89999	13.6
									CHANNELS 3  Xrotation Yrotation Zrotation
									JOINT right_hand
									{
										OFFSET	110.7	-3.89999	13.6
										CHANNELS 3  Xrotation Yrotation Zrotation
										JOINT right_ee
										{
											OFFSET	80.8	-5.10001	12.1
											CHANNELS 3  Xrotation Yrotation Zrotation
											End Site
											{
												OFFSET	1	0	0
											}
										}
									}
								}
							}
						}
					}
				}
			}
		}
	}
	JOINT left_hip
	{
		OFFSET	-82.8	-127.5	0.300001
		CHANNELS 3  Xrotation Yrotation Zrotation
		JOINT left_knee
		{
			OFFSET	-28.2	-396.7	2.2
			CHANNELS 3  Xrotation Yrotation Zrotation
			JOINT left_ankle
			{
				OFFSET	-11.7	-411.3	35.4
				CHANNELS 3  Xrotation Yrotation Zrotation
				JOINT left_toes
				{
					OFFSET	0	-60	-88.6
					CHANNELS 3  Xrotation Yrotation Zrotation
					JOINT left_foot_ee
					{
						OFFSET	-22.5	-16.5	-42.2
						CHANNELS 3  Xrotation Yrotation Zrotation
						End Site
						{
							OFFSET	1	0	0
						}
					}
				}
			}
		}
	}
	JOINT right_hip
	{
		OFFSET	82.8	-127.5	0.300001
		CHANNELS 3  Xrotation Yrotation Zrotation
		JOINT right_knee
		{
			OFFSET	28.2	-396.7	2.2
			CHANNELS 3  Xrotation Yrotation Zrotation
			JOINT right_ankle
			{
				OFFSET	11.7	-411.3	35.4
				CHANNELS 3  Xrotation Yrotation Zrotation
				JOINT right_toes
				{
					OFFSET	0	-60	-88.6
					CHANNELS 3  Xrotation Yrotation Zrotation
					JOINT right_foot_ee
					{
						OFFSET	22.5	-16.5	-42.2
						CHANNELS 3  Xrotation Yrotation Zrotation
						End Site
						{
							OFFSET	1	0	0
						}
					}
				}
			}
		}
	}
}
MOTION
Frames: 13
Frame Time: 0.02
534.1299986 719.643 -1208.32951985 -165.004868899 -29.1628174538 -175.296890675 5.27145 0.0296503 0.903258 5.27191 -0.027884 0.903314 5.27105 -0.135617 0.893512 5.26994 0.00719234 0.903716 -6.51031 13.7965 5.56147 -6.42322 21.5677 8.26373 -0.0 0.0 -0.0 0.564792 11.398 2.30234 -31.6921 -51.0467 52.4072 1.62297 -38.7953 0.571497 60.3498 -1.80517 -7.1401 1.28022 -2.98894 7.36087 -0.0 0.0 -0.0 10.2247 -3.70425 -19.8821 -39.5904 23.8041 -54.7166 0.740681 20.1487 -0.131595 33.4901 0.0546396 4.21749 0.445989 4.97605 -0.897411 0.0 0.0 0.0 14.8605 13.4678 8.05112 -10.3351 0.285639 1.55824 37.4493 -28.2443 -5.54465 38.758 -0.0 -0.0 -0.0 0.0 -0.0 29.2753 -12.5532 14.6419 -17.7339 -0.315729 -2.69226 8.86318 4.28882 1.29411 21.8393 -0.0 -0.0 0.0 0.0 0.0 
534.173560336 719.643 -1202.82915216 -165.307121449 -27.0267511703 -175.938592345 5.27145 0.0296503 0.903258 5.27191 -0.027884 0.903314 5.27105 -0.135617 0.893512 5.26994 0.00719234 0.903716 -6.51031 13.7965 5.56147 -6.42322 21.5677 8.26373 -0.0 0.0 -0.0 0.564792 11.398 2.30234 -31.6921 -51.0467 52.4072 1.62297 -38.7953 0.571497 60.3498 -1.80517 -7.1401 1.28022 -2.98894 7.36087 -0.0 0.0 -0.0 10.2247 -3.70425 -19.8821 -39.5904 23.8041 -54.7166 0.740681 20.1487 -0.131595 33.4901 0.0546396 4.21749 0.445989 4.97605 -0.897411 0.0 0.0 0.0 14.8605 13.4678 8.05112 -10.3351 0.285639 1.55824 37.4493 -28.2443 -5.54465 38.758 -0.0 -0.0 -0.0 0.0 -0.0 29.2753 -12.5532 14.6419 -17.7339 -0.315729 -2.69226 8.86318 4.28882 1.29411 21.8393 -0.0 -0.0 0.0 0.0 0.0 
547.557601419 717.124 -1186.12519314 -166.936634173 -25.0475753474 -176.417216488 5.01116 -0.12197 0.872603 5.01157 -0.177246 0.863075 5.00856 -0.282942 0.834423 5.00762 -0.147615 0.868633 -6.95521 13.6661 5.35335 -6.89375 21.567 8.10515 -0.0 0.0 -0.0 1.19614 10.8593 3.32177 -27.4333 -52.1003 53.9158 1.70178 -40.1278 0.621587 60.403 -1.80994 -7.14498 1.32 -3.63439 7.36325 -0.0 0.0 -0.0 9.93939 -5.4858 -19.1749 -39.7832 23.2111 -54.2838 0.754843 20.5021 -0.136514 33.3634 0.0497918 4.20204 0.435878 5.12595 -0.765957 0.0 0.0 0.0 14.3219 12.6153 7.89502 -10.3976 0.286506 1.5678 37.3159 -28.1956 -5.52791 38.8693 -0.0 -0.0 -0.0 0.0 -0.0 32.3792 -11.8224 14.8376 -17.7609 -0.31557 -2.69641 7.96363 3.21946 1.16193 21.6194 -0.0 -0.0 0.0 0.0 0.0 
551.966209694 715.576 -1180.34988281 -167.007727448 -24.906233038 -176.353570442 5.11625 -0.149244 0.858359 5.11664 -0.203559 0.847124 5.1133 -0.305584 0.815891 5.11242 -0.172899 0.853909 -6.96932 13.6464 5.11989 -6.91466 21.7016 7.87293 -0.0 0.0 -0.0 1.4988 10.5875 3.81517 -25.8399 -52.3887 54.3125 1.73139 -40.6154 0.640766 60.3945 -1.80918 -7.1442 1.34078 -4.00562 7.34996 -0.0 0.0 -0.0 9.86704 -6.42912 -18.9546 -39.7282 22.8458 -53.9962 0.759098 20.608 -0.138008 33.3545 0.0494512 4.20096 0.437257 5.21728 -0.736675 0.0 0.0 0.0 13.7898 11.8796 8.09919 -10.664 0.290084 1.6085 37.2288 -28.2475 -5.52224 38.9874 -0.0 -0.0 -0.0 0.0 -0.0 33.7465 -11.7324 14.3901 -18.0073 -0.314034 -2.73418 7.5821 2.93632 1.10664 21.567 -0.0 -0.0 0.0 0.0 0.0 
563.701135752 717.027 -1173.54862479 -167.766738174 -25.7381627908 -176.665641755 5.16902 -0.0767791 0.850654 5.16941 -0.130751 0.844046 5.16714 -0.232166 0.821955 5.16621 -0.0994445 0.848303 -6.82944 13.9012 3.2712 -6.80444 23.4848 6.07087 -0.0 0.0 -0.0 1.60136 10.5836 3.99029 -24.802 -52.6247 55.0559 1.82241 -42.0707 0.700898 59.8794 -1.7632 -7.09679 1.44248 -5.01816 7.61808 -0.0 0.0 -0.0 9.68095 -7.05182 -18.5413 -40.2449 21.1834 -53.4458 0.72065 19.646 -0.124777 34.0356 0.075909 4.2839 0.461514 5.74193 -0.678412 0.0 0.0 0.0 11.5128 10.2532 8.13916 -13.8923 0.31839 2.10297 37.5437 -28.9785 -5.60173 40.1762 -0.0 -0.0 -0.0 0.0 -0.0 36.3673 -11.6116 13.9491 -21.9654 -0.267112 -3.33957 4.5194 2.61972 0.66544 21.8705 -0.0 -0.0 0.0 0.0 0.0 
592.036725748 715.3 -1159.46133959 -168.97443125 -28.0460923771 -175.792588211 5.06965 -0.0725077 0.814408 5.07001 -0.124182 0.808145 5.06796 -0.222651 0.786732 5.06711 -0.0956116 0.81202 -8.30426 13.9875 0.396618 -8.40516 25.8969 3.57068 -0.0 0.0 -0.0 3.50166 10.8161 7.25889 -22.5051 -51.857 54.0088 1.97046 -44.3024 0.802239 59.7337 -1.75028 -7.08331 1.56614 -6.79733 7.70915 -0.0 0.0 -0.0 9.36055 -8.17261 -17.8344 -41.7707 18.6263 -52.409 0.663917 18.2053 -0.106375 35.2243 0.124443 4.42789 0.504851 6.57865 -0.616444 0.0 0.0 0.0 8.51694 7.79135 7.80036 -18.5629 0.309972 2.81933 36.7599 -29.7883 -5.57424 39.9788 -0.0 -0.0 -0.0 0.0 -0.0 40.8944 -11.0159 13.7628 -27.513 -0.13126 -4.17975 -4.05476 2.15874 -0.60924 21.4048 -0.0 -0.0 0.0 0.0 0.0 
599.363473178 717.856 -1157.91809203 -168.843729963 -29.8978886488 -175.540108443 5.02603 -0.112245 0.72968 5.02631 -0.158448 0.72106 5.02408 -0.246478 0.695905 5.02343 -0.133482 0.726095 -8.68456 13.9688 -0.0512037 -8.81689 26.2152 3.21752 -0.0 0.0 -0.0 3.79935 10.6825 7.76665 -21.8493 -51.6575 53.4764 2.01869 -44.9949 0.836135 59.7173 -1.74882 -7.08179 1.59894 -7.15625 7.77993 -0.0 0.0 -0.0 9.31682 -8.3986 -17.7326 -42.0282 18.164 -52.3104 0.654683 17.9685 -0.103508 35.4327 0.13326 4.45303 0.515373 6.70978 -0.631855 0.0 0.0 0.0 8.04455 7.42944 7.73625 -19.2491 0.303817 2.92444 36.6131 -29.8957 -5.56599 39.9344 -0.0 -0.0 -0.0 0.0 -0.0 41.7616 -10.9997 13.614 -28.1358 -0.110942 -4.27317 -5.48411 2.17877 -0.826386 21.2827 -0.0 -0.0 0.0 0.0 0.0 
592.621410316 714.053 -1168.76271274 -168.508922324 -32.0737912819 -174.511592819 5.10009 -0.122273 0.692989 5.10034 -0.166121 0.683805 5.09815 -0.248629 0.658309 5.09757 -0.141544 0.689311 -10.1553 15.0294 3.51506 -10.3716 25.9995 7.2937 -0.0 0.0 -0.0 1.83061 9.95685 4.33575 -20.5797 -50.8202 51.203 2.46328 -50.657 1.16603 61.3885 -1.89909 -7.23451 1.69159 -7.10654 8.43266 -0.0 0.0 -0.0 9.30132 -9.05184 -17.6465 -41.5839 18.7975 -52.6392 0.647976 17.7961 -0.101449 35.5677 0.13902 4.4693 0.512147 6.63631 -0.641236 0.0 0.0 0.0 7.35844 7.18212 7.22161 -16.5362 0.320798 2.50857 36.195 -30.3924 -5.55531 38.6387 -0.0 -0.0 -0.0 0.0 -0.0 44.1561 -12.2697 11.5096 -23.7993 -0.231218 -3.61869 -10.428 5.37005 -1.60363 19.1584 -0.0 -0.0 0.0 0.0 0.0 
591.234380194 714.764 -1173.11083202 -166.894355906 -34.6549488049 -173.259264223 5.11188 -0.108772 0.798687 5.11222 -0.159372 0.790148 5.10974 -0.254805 0.764729 5.10894 -0.130837 0.795371 -12.0149 15.3366 6.42886 -12.2544 25.0154 10.5705 -0.0 0.0 -0.0 1.06679 10.7283 3.08943 -18.4057 -50.6783 51.7874 2.87219 -54.8884 1.49184 62.2118 -1.97475 -7.30814 1.78919 -7.56238 8.9043 -0.0 0.0 -0.0 9.35395 -9.57322 -17.6971 -40.9715 18.8257 -53.066 0.642331 17.6507 -0.0997304 36.2516 0.168787 4.5515 0.468611 6.57302 -0.374272 0.0 0.0 0.0 7.02826 7.00203 7.08733 -9.87566 0.278944 1.48806 35.8232 -30.7399 -5.53912 37.7245 -0.0 -0.0 -0.0 0.0 -0.0 45.8148 -13.2544 9.95279 -20.7697 -0.285695 -3.15704 -14.2238 8.05357 -2.22548 17.6742 -0.0 -0.0 0.0 0.0 0.0 
621.387558912 715.56 -1159.96627614 -163.049143987 -41.4051386916 -169.565239738 4.8128 0.108478 0.822004 4.81317 0.0559533 0.82724 4.81368 -0.0498892 0.827628 4.81273 0.0814407 0.825121 -12.4765 15.8344 8.79459 -12.6236 24.5621 13.0323 -0.0 0.0 -0.0 2.43025 14.9208 5.65634 -16.9166 -46.1652 50.5191 3.57981 -60.5656 2.09088 61.6712 -1.92495 -7.25992 2.15724 -7.43903 11.4811 -0.0 0.0 -0.0 9.25988 -11.4908 -17.3377 -41.5389 16.0573 -54.419 0.491004 13.6707 -0.0588564 37.1356 0.208721 4.65724 0.397881 5.07037 -0.533325 0.0 0.0 0.0 3.05242 6.64277 6.54597 -1.99768 0.0770832 0.29687 38.3787 -27.7101 -5.60453 38.8685 -0.0 -0.0 -0.0 0.0 -0.0 50.7963 -16.5919 6.95891 -16.1325 -0.321641 -2.44664 -23.6806 19.6882 -4.04666 15.9261 -0.0 -0.0 0.0 0.0 0.0 
633.279417673 701.643 -1154.68767464 -162.471414674 -43.63113 -168.560184181 5.07435 0.107352 0.718169 5.07463 0.0614367 0.723544 5.07516 -0.0279275 0.725611 5.07444 0.0870167 0.720915 -10.1106 16.3937 8.21688 -10.1541 25.4294 12.1241 -0.0 0.0 -0.0 3.23848 13.4861 6.91036 -15.2797 -44.2668 50.2447 3.79981 -62.0033 2.28384 63.1687 -2.06401 -7.39235 2.23512 -7.62437 11.9379 -0.0 0.0 -0.0 9.24529 -12.0442 -17.2545 -42.3726 15.2636 -53.7107 0.421008 11.7807 -0.0434355 36.768 0.191916 4.61334 0.343699 4.62972 -0.354411 0.0 0.0 0.0 1.99627 6.5375 6.764 -1.32878 0.0524279 0.197176 37.5388 -26.7788 -5.46401 39.4942 -0.0 -0.0 -0.0 0.0 -0.0 51.2671 -17.7254 5.56481 -15.6018 -0.322085 -2.36522 -21.4366 23.3189 -3.80178 15.5788 -0.0 -0.0 0.0 0.0 0.0 
648.451231305 697.965 -1156.84294123 -161.863725607 -44.6242984222 -167.497026336 5.12452 0.167446 0.753972 5.12483 0.119131 0.763099 5.12614 0.0251615 0.771931 5.12534 0.146754 0.758271 -8.19614 16.6713 7.3936 -8.15496 26.0416 10.9896 -0.0 0.0 -0.0 3.74204 13.2932 7.73843 -15.4761 -42.6243 50.1089 3.99038 -63.1476 2.453 63.3908 -2.08493 -7.41168 2.63494 -10.1752 13.5805 -0.0 0.0 -0.0 9.22393 -12.4444 -17.1741 -43.2071 15.2777 -52.85 0.39153 10.9766 -0.0376195 36.3798 0.174477 4.56688 0.305785 4.32078 -0.229545 0.0 0.0 0.0 1.62228 6.6542 7.5872 -2.11243 0.0811956 0.314 37.5449 -26.2043 -5.43117 40.1248 -0.0 -0.0 -0.0 0.0 -0.0 50.8228 -19.0236 3.87692 -13.9071 -0.318455 -2.10524 -18.0469 28.0872 -3.38621 16.1303 -0.0 -0.0 0.0 0.0 0.0 
649.144311984 697.965 -1160.74814585 -161.590649187 -45.4502335568 -167.111099651 5.12452 0.167446 0.753972 5.12483 0.119131 0.763099 5.12614 0.0251615 0.771931 5.12534 0.146754 0.758271 -8.19614 16.6713 7.3936 -8.15496 26.0416 10.9896 -0.0 0.0 -0.0 3.74204 13.2932 7.73843 -15.4761 -42.6243 50.1089 3.99038 -63.1476 2.453 63.3908 -2.08493 -7.41168 2.63494 -10.1752 13.5805 -0.0 0.0 -0.0 9.22393 -12.4444 -17.1741 -43.2071 15.2777 -52.85 0.39153 10.9766 -0.0376195 36.3798 0.174477 4.56688 0.305785 4.32078 -0.229545 0.0 0.0 0.0 1.62228 6.6542 7.5872 -2.11243 0.0811956 0.314 37.5449 -26.2043 -5.43117 40.1248 -0.0 -0.0 -0.0 0.0 -0.0 50.8228 -19.0236 3.87692 -13.9071 -0.318455 -2.10524 -18.0469 28.0872 -3.38621 16.1303 -0.0 -0.0 0.0 0.0 0.0 
